<svg id="Layer_1" data-name="Layer 1" xmlns="http://www.w3.org/2000/svg" xmlns:xlink="http://www.w3.org/1999/xlink" viewBox="0 0 992.29 144.03"><defs><linearGradient id="linear-gradient" x1="-6.89" y1="60.32" x2="151.78" y2="60.32" gradientUnits="userSpaceOnUse"><stop offset="0" stop-color="#98eace"/><stop offset=".09" stop-color="#93e4ce"/><stop offset=".21" stop-color="#85d2ce"/><stop offset=".35" stop-color="#6db4cd"/><stop offset=".51" stop-color="#4d8ccd"/><stop offset=".64" stop-color="#2e64cc"/><stop offset=".73" stop-color="#2856b0"/><stop offset=".82" stop-color="#244b9b"/><stop offset=".91" stop-color="#21458e"/><stop offset="1" stop-color="#20438a"/></linearGradient><linearGradient id="linear-gradient-2" x1="-3.6" y1="108.97" x2="149.16" y2="108.97" xlink:href="#linear-gradient"/><linearGradient id="linear-gradient-3" x1="-3.53" y1="149.35" x2="149.23" y2="149.35" xlink:href="#linear-gradient"/><linearGradient id="linear-gradient-4" x1="140.84" y1="29.22" x2="140.84" y2="29.22" gradientUnits="userSpaceOnUse"><stop offset="0" stop-color="#98eace"/><stop offset="1" stop-color="#2e64cc"/></linearGradient><style/></defs><path d="M411.93 101.68L419 90.94c8.32 6 17.24 9.53 26.46 9.53 8.77 0 14.82-4.09 14.82-10.14 0-7.25-8-9.52-17.69-12.24-18-5-26.92-10.14-26.92-22.84-.15-14.36 11.8-23.74 28.43-23.74a53.51 53.51 0 0128.9 9.07l-6.66 11c-7.56-4.68-15.42-7.26-22.23-7.26-7.71 0-13.76 3.33-13.76 9.23 0 6 4.84 7.86 18 12 12.85 3.78 26.61 8 26.61 23.58 0 14.82-12.55 24.2-29.64 24.2a54.76 54.76 0 01-33.39-11.65zM525 107.72a25.13 25.13 0 01-15.57 5.6c-12.1 0-20.57-8.77-20.57-21.32V46.01h-11.75V33.33h11.79V11.85h14.67v21.48H522v12.68h-18.43v44.91c0 5.44 3.63 9.37 8 9.37a11.69 11.69 0 008-2.87zm50.7-76.21v13c-16.18 0-27.67 8.92-29 22.53v44.45h-15V33.33h15v15c4.96-10.32 15.54-16.82 29-16.82zm63.51 60.03l9.38 9.68c-7 7.41-20.57 12.1-31.61 12.1-21.77 0-40.22-17.09-40.22-41.13 0-23.44 17.39-40.68 39-40.68 23.9 0 37.66 18.15 37.66 46.12h-61.54c2 13 11.49 22.38 25 22.38 8.12 0 17.64-3.63 22.33-8.47zM592 65.69h46.88c-1.66-12.1-9.07-20.87-22.53-20.87-12.07 0-21.9 8.19-24.35 20.87zm134.92-1.52v47.33h-14.67v-10.73c-5.75 8.16-16.48 12.55-26 12.55-16.63 0-28.88-9.68-28.88-25 0-15.58 14.06-26 31.3-26a75.37 75.37 0 0123.59 4.23v-2.38c0-9.83-4.54-20.26-20.11-20.26-7.71 0-15.27 3-22.08 6.5l-5.44-11c11.19-5.59 21-7.86 29.63-7.86 21.01-.04 32.66 13.27 32.66 32.62zm-14.67 22.84V76.57a72.81 72.81 0 00-21.32-3c-10.44 0-19.21 5.9-19.21 14.36s7.56 13.61 17.39 13.61c9.68-.02 20.57-4.86 23.14-14.53zm142.44-25.26v49.75H840V64.01c0-11.49-6.81-19.5-16.64-19.5-11.19 0-19 7.41-19 18.14v48.84h-14.69V64.01c0-11.49-6.8-19.5-16.63-19.5-11.19 0-19.06 7.41-19.06 18.14v48.84H739V33.33h15v10.88c3.94-7.71 12.1-12.7 22.08-12.7a27 27 0 0125.1 15.73c3.63-9.68 13.61-15.73 25.41-15.73 16.31 0 28.1 12.55 28.1 30.24zM925 91.54l9.38 9.68c-7 7.41-20.57 12.1-31.61 12.1-21.77 0-40.22-17.09-40.22-41.13 0-23.44 17.39-40.68 39-40.68 23.89 0 37.65 18.15 37.65 46.12h-61.52c2 13 11.49 22.38 25 22.38 8.12 0 17.64-3.63 22.32-8.47zm-47.17-25.85h46.88c-1.67-12.1-9.08-20.87-22.53-20.87-12.1 0-21.93 8.19-24.35 20.87zM992 31.51v13c-16.18 0-27.67 8.92-29 22.53v44.45h-15V33.33h15v15c5-10.32 15.54-16.82 29-16.82z" stroke="#fff" stroke-miterlimit="10" stroke-width=".57" fill="#fff"/><path d="M181.21 128.18l11.72-11.49c2.64 5.38 8.5 9.09 14 9.09 7.18 0 12.44-5.62 12.44-13.64v-54h17.71v55.4c0 16.51-11.72 28.24-28.35 28.24-10.53.04-22.02-5.59-27.52-13.6zm71.07-70h37c17.83 0 31 11.49 31 27.76s-13.16 27.76-31 27.76h-19.41v26.68h-17.59zm35 39.37c8.74 0 14.72-4.55 14.72-11.61s-6-11.6-14.72-11.6h-17.41v23.21zm87.04 29.91h-36.61l-5.27 12.92H312.7l33.5-82.2h19.74l33.5 82.2h-19.86zm-6.11-15l-12.2-30-12.2 30z" transform="translate(-4 -27.99)" fill="#fff"/><path d="M148.48 48.66c-1.23-4.23-3.62-7.19-6.19-9.94a32.58 32.58 0 00-11-7.63 37.41 37.41 0 00-20.89-2.57c-2.4.43-7.08 1.34-7.69 3.95a3.5 3.5 0 00.52 2.49c1.82 3.28 6.45 3.69 9.43 4.39 9 2.14 17.81 10.53 17.07 16.23-.42 3.2-4 7.6-4.38 8-.2.19-.42.38-.64.57s-.34.32-.54.48c-.27.22-.51.45-.79.67a51.83 51.83 0 01-9.16 5.42 97.5 97.5 0 01-21.89 7 140.66 140.66 0 01-47.48 1.48A85.15 85.15 0 0122 72.78a39.89 39.89 0 01-9.72-6.36 14.86 14.86 0 01-5.1-9.69 1.58 1.58 0 00-3.15 0c-.23 4.85 2 9.5 5 12.89a45 45 0 0010.24 8.5 92.52 92.52 0 0023.89 9.76 151.63 151.63 0 0051.09 4.21 112 112 0 0026-5.27 68 68 0 0013-5.87 37.74 37.74 0 0012.21-11.33 20.46 20.46 0 002.35-4.49 19.81 19.81 0 001.47-5.27 28.64 28.64 0 00-.8-11.2z" transform="translate(-4 -27.99)" fill="url(#linear-gradient)"/><path d="M148.47 91.87a8.75 8.75 0 00-14.66-2.69.31.31 0 00-.07.12.29.29 0 000 .12.45.45 0 000 .2c1 1.79.42 4.84.33 5.34-1.07 5.67-6.07 9.15-11.52 12.7-.73.49-1.49 1-2.26 1.41l-1.13.65c-.54.3-1.07.61-1.63.9a58.84 58.84 0 01-7.09 3.18l-.81.33c-11.53 4.31-24.18 6.5-36.88 7.25s-25.65-.17-38.06-3.32A63.54 63.54 0 0117.06 111a29.53 29.53 0 01-7.22-6 15.59 15.59 0 01-3.59-8.5v-.06a.92.92 0 00-1.84.06 18 18 0 003.17 10.2 33.19 33.19 0 007.33 7.53A68.68 68.68 0 0033 123.78c12.78 4.68 26.23 6.92 39.77 7.69 13.54.59 27.27-.24 40.93-3.76a71.79 71.79 0 0020.3-8.37 37.3 37.3 0 004.91-3.6 32.21 32.21 0 004.64-4.69 25.61 25.61 0 005.6-14.55v-.65a9.57 9.57 0 00-.68-3.98z" transform="translate(-4 -27.99)" fill="url(#linear-gradient-2)"/><path d="M148.55 132.24a8.76 8.76 0 00-14.67-2.69.42.42 0 00-.07.12.31.31 0 000 .13.58.58 0 000 .19c1 1.79.43 4.84.33 5.35-1.07 5.66-6.06 9.14-11.52 12.69-.73.49-1.49 1-2.26 1.41-.36.22-.74.43-1.12.65-.55.3-1.08.62-1.64.9a58.84 58.84 0 01-7.09 3.18l-.81.32c-11.52 4.32-24.18 6.5-36.88 7.25s-25.65-.17-38-3.31a63.94 63.94 0 01-17.67-7.08 29.67 29.67 0 01-7.21-6 15.59 15.59 0 01-3.6-8.44v-.05a1 1 0 00-.9-.88.94.94 0 00-1 .93 18.08 18.08 0 003.18 10.21A33.1 33.1 0 0015 154.6a68.68 68.68 0 0018.11 9.55c12.78 4.69 26.24 6.92 39.77 7.69 13.54.59 27.28-.24 40.94-3.76a71.62 71.62 0 0020.3-8.37 38.75 38.75 0 004.9-3.59 32.3 32.3 0 004.64-4.7 25.51 25.51 0 005.6-14.55v-.65a10 10 0 00-.71-3.98z" transform="translate(-4 -27.99)" fill="url(#linear-gradient-3)"/></svg>